<svg id="Icons" height="512" viewBox="0 0 74 74" width="512" xmlns="http://www.w3.org/2000/svg"><path d="m59.8 36a1 1 0 0 1 -1-1v-2.9a1 1 0 0 1 2 0v2.9a1 1 0 0 1 -1 1z"/><path d="m59.8 72h-45.6a1 1 0 0 1 -1-1v-58.03a1 1 0 0 1 1-1h10.36a1 1 0 0 1 0 2h-9.36v56.03h43.6v-18.03a1 1 0 0 1 2 0v19.03a1 1 0 0 1 -1 1z"/><path d="m59.8 45.97a1 1 0 0 1 -1-1v-2.97a1 1 0 0 1 2 0v2.97a1 1 0 0 1 -1 1z"/><path d="m59.8 26.1a1 1 0 0 1 -1-1v-11.13h-9.36a1 1 0 0 1 0-2h10.36a1 1 0 0 1 1 1v12.13a1 1 0 0 1 -1 1z"/><path d="m49.435 17.156h-24.87a1 1 0 0 1 -1-1v-6.281a1 1 0 0 1 1-1h5.225a7.228 7.228 0 0 1 7.21-6.875 7.229 7.229 0 0 1 7.21 6.875h5.225a1 1 0 0 1 1 1v6.281a1 1 0 0 1 -1 1zm-23.87-2h22.87v-4.281h-5.217a1 1 0 0 1 -1-1v-.657a5.227 5.227 0 0 0 -5.218-5.218 5.224 5.224 0 0 0 -5.218 5.218v.657a1 1 0 0 1 -1 1h-5.217z"/><circle cx="37" cy="8.375" r="1.625"/><path d="m37 10.5a2.125 2.125 0 1 1 2.125-2.125 2.127 2.127 0 0 1 -2.125 2.125zm0-3.25a1.125 1.125 0 1 0 1.125 1.125 1.127 1.127 0 0 0 -1.125-1.125z"/><path d="m52.781 28.5h-24.125a1 1 0 0 1 0-2h24.125a1 1 0 1 1 0 2z"/><path d="m52.781 39.219h-24.125a1 1 0 0 1 0-2h24.125a1 1 0 0 1 0 2z"/><path d="m52.781 49.938h-24.125a1 1 0 1 1 0-2h24.125a1 1 0 0 1 0 2z"/><path d="m52.781 60.656h-24.125a1 1 0 0 1 0-2h24.125a1 1 0 0 1 0 2z"/><path d="m23.219 28.5h-2a1 1 0 0 1 0-2h2a1 1 0 0 1 0 2z"/><path d="m23.219 39.219h-2a1 1 0 0 1 0-2h2a1 1 0 0 1 0 2z"/><path d="m23.219 49.938h-2a1 1 0 0 1 0-2h2a1 1 0 1 1 0 2z"/><path d="m23.219 60.656h-2a1 1 0 0 1 0-2h2a1 1 0 0 1 0 2z"/></svg>